PathFileType	4	(X/Y/Z)	OpenSim_Sub07_CSBaseline_Accel.trc
DataRate	CameraRate	NumFrames	NumMarkers	Units	OrigDataRate	OrigDataStartFrame	OrigNumFrames
100	100	27	8	m	100	1948	7788
Frame#	Time	torso_imu_offset_imu	pelvis_imu_offset_imu	tibia_r_imu_offset_imu	femur_r_imu_offset_imu	tibia_l_imu_offset_imu	femur_l_imu_offset_imu	toes_r_imu_offset_imu	toes_l_imu_offset_imu
				X1	Y1	Z1	X2	Y2	Z2	X3	Y3	Z3	X4	Y4	Z4	X5	Y5	Z5	X6	Y6	Z6	X7	Y7	Z7	X8		Y8	Z8	

1948	19.47000000	-9.23035288	1.67931444	5.84195293	9.63950609	0.46366324	3.25285223	10.37305022	3.77844126	-0.82093549	10.55917047	-3.45316729	-1.03712189	12.98321286	-5.23489154	-0.86414212	11.63636052	1.39098903	-1.49943424	6.24208030	1.81730258	9.19918255	12.49261784	3.83697662	13.70326925
1949	19.48000000	-9.24720505	1.67756554	5.80103866	9.44478224	0.57712807	2.98193513	10.12805290	1.86512514	-0.26702814	9.97343662	-3.70121262	-0.69615889	12.11692772	-5.25204811	-0.92235642	11.30566610	2.33798645	-1.30150493	6.05051080	1.24513839	8.93124118	10.02042105	3.29238365	12.87302323
1950	19.49000000	-9.20605919	1.58752490	5.79839768	9.26766364	0.69762224	2.85040466	10.16894954	-0.05922604	0.09466070	9.36722983	-3.27118399	-0.62691641	10.41208742	-5.65066856	-0.26943757	11.45907532	3.03659570	-0.64923287	5.31788044	0.99132015	8.82496395	6.77988590	2.31879113	12.17370597
1951	19.50000000	-9.07887479	1.50976872	5.88549942	9.21216534	0.84994289	2.86619020	10.24481979	-1.73977847	0.18999401	8.98401875	-2.47272580	-0.50380049	8.07518446	-6.27285176	0.80381444	11.19724254	3.29183976	-0.04878669	5.04414889	1.02943898	8.94378517	6.28376388	2.24276789	9.27300236
1952	19.51000000	-9.04132284	1.43631330	5.84349256	9.43487240	1.05982749	2.81049755	10.95339177	-3.19937880	0.16868107	8.80133699	-1.43740865	-0.26366289	6.29325891	-6.80041881	1.67039581	11.19266537	3.65250322	0.42002218	4.88349061	1.11416887	8.85549068	1.69027925	1.48861146	7.55077842
1953	19.52000000	-9.05665723	1.37854059	5.76892269	9.57972853	1.33727152	2.85740515	10.69939438	-3.79783697	0.16329277	8.78390439	-0.55288858	-0.25606325	4.79175153	-7.09811589	2.99829519	10.98883474	3.91492623	0.71561656	4.95491900	1.38065586	8.63649641	12.89450935	-5.06985110	13.16523235
1954	19.53000000	-9.17412840	1.27683746	5.88036218	9.68205196	1.52171003	2.76337352	10.24629064	-3.05827405	-0.44078818	8.94843391	0.06068865	-0.37813997	3.53703149	-7.99907674	4.48766343	11.59396312	3.78925572	0.97595573	4.47099521	0.99542164	8.59611582	40.04064462	-1.92617712	23.00690490
1955	19.54000000	-9.44628995	1.26103797	6.00104768	9.59823874	1.64726179	2.59939338	10.13653228	-1.12886461	-1.04668393	8.98879400	0.57088311	-0.50486386	2.09540484	-9.85818670	4.83322899	12.26070872	3.41743204	0.92407179	4.50655921	0.88222028	8.79087190	18.81823434	9.72656006	22.90672812
1956	19.55000000	-9.42294869	1.17489214	6.00629577	9.44157247	1.76354977	2.46371942	10.32705049	1.03073060	-1.44770204	9.12787022	1.24638411	-0.42122391	1.12890089	-10.23229235	4.02229302	11.39822546	3.03417832	0.51337406	4.79696692	1.17041281	8.85700147	8.09279217	11.33511305	16.78432885
1957	19.56000000	-9.29286368	1.04105481	6.04867310	9.26790562	1.78794500	2.36110579	10.44538725	2.70327469	-1.78045095	9.45222777	1.58576427	-0.34930005	1.28230168	-8.00440084	3.28361845	10.54780269	2.66619610	0.50399867	4.96629916	1.05554154	8.63508024	-0.40384491	9.51279560	11.97685379
1958	19.57000000	-9.06164300	0.96031674	6.03920253	9.22050181	1.73569014	2.42695949	9.80295852	4.36478328	-1.88793289	9.53823826	1.35927574	-0.32825090	1.75883347	-5.20391454	3.08740563	9.61460537	2.57493180	0.89070256	5.11916874	0.95939400	8.87390349	-4.38709116	6.87883181	9.03877477
1959	19.58000000	-8.81731935	0.96856467	6.00778830	9.19409835	1.53403698	2.39746403	9.15898996	5.33834642	-1.72351989	9.61351812	0.90638367	-0.28273566	1.81864287	-3.06532041	3.66419591	8.66580273	2.84316374	1.09294734	5.02674844	0.76124870	8.81447438	-3.42533964	3.48649195	7.30850181
1960	19.59000000	-8.63582170	0.99182638	5.92830917	9.28764280	1.25931464	2.42338392	9.10380041	5.04886383	-1.22280209	9.68166353	0.43319359	-0.35548428	1.60014870	-1.87402698	5.10003971	8.47911040	3.09764735	1.08741523	5.15668665	0.66527120	8.69654741	-1.07840857	2.58811622	8.13202119
1961	19.60000000	-8.53656706	1.00539460	5.92350736	9.32372775	0.99097279	2.45674886	9.48194645	3.63864975	-0.63471331	9.60428407	-0.04298505	-0.25260011	1.30131745	-1.56085115	6.39376929	8.63243355	3.11565984	0.76457252	5.30773137	0.77220144	8.47304741	1.36290366	2.65451253	8.92774351
1962	19.61000000	-8.48510541	1.06529613	5.99320667	9.26977498	0.75296806	2.42738162	9.84881044	1.59730760	-0.41384663	9.44657267	-0.32380087	-0.13923149	1.31463312	-1.74214538	6.70465590	8.76861347	3.03521667	0.30989779	5.38968094	0.92886184	8.74039571	2.86845831	4.50385943	9.96211548
1963	19.62000000	-8.42381828	1.12180214	6.05359900	9.17371297	0.53785756	2.40682402	10.02882598	-0.29585336	-0.48995372	9.42404363	-0.51935563	-0.07241799	1.79228715	-2.29762070	6.64525036	8.89861653	2.97690253	-0.01569603	5.15368620	0.95472975	8.70275730	2.74834147	5.79906961	10.29666176
1964	19.63000000	-8.38596187	1.13739444	6.10901480	9.04039995	0.51113805	2.38899169	10.07664536	-1.35330452	-0.66986728	9.57256388	-0.62736634	0.12205300	2.01166315	-2.98140638	6.34227181	8.95487642	2.41158240	-0.17044785	5.05202155	1.01412743	8.61043481	2.48803956	5.38643658	9.97500740
1965	19.64000000	-8.31226940	1.17082886	6.17729024	8.96078974	0.52793540	2.38736547	10.00991520	-1.36074195	-0.71391036	9.57425503	-0.68833504	0.07160367	1.88389130	-3.26954222	5.64521598	8.32688439	2.63723341	-0.36142370	5.14279382	1.03235656	8.59022580	2.34498643	3.30282598	9.12271563
1966	19.65000000	-8.21101116	1.15510538	6.23298025	8.91119696	0.65611470	2.36412637	9.92539260	-0.76570056	-0.57225579	9.37104398	-0.67385127	-0.08675646	2.40680360	-3.02846286	5.35128644	7.94808611	2.65625278	-0.45267413	5.51838066	0.88588439	8.55599551	2.13430885	1.06559451	8.41690154
1967	19.66000000	-8.16045797	1.11153432	6.23973422	8.82859977	0.88698489	2.28508905	9.77371157	0.14225833	-0.50153545	9.18685305	-0.67420505	-0.05661607	2.56711810	-2.23168573	5.97852155	8.13201991	2.06076213	-0.31790035	5.19625271	0.90017251	8.51442203	2.22511541	-0.39246963	7.74685820
1968	19.67000000	-8.11535560	1.02457799	6.30279539	8.77058718	1.10764435	2.25094340	9.66634134	1.01881904	-0.57053120	9.22659269	-0.83359229	-0.04544589	2.66045239	-0.45840921	6.53326923	8.27934946	1.65959754	-0.24620758	5.06799221	0.84327551	8.50655924	2.13969526	-0.50923119	7.38065265
1969	19.68000000	-8.09024771	1.00148276	6.34847414	8.75803147	1.30184504	2.21117984	9.67323440	1.81841083	-0.51091738	9.22412108	-0.96516360	-0.02692802	3.11658207	1.93574877	4.88581860	8.08520615	1.22107946	-0.49593898	5.08219887	0.78694487	8.53062351	2.33998329	0.10673170	7.28590163
1970	19.69000000	-8.01248148	0.96802498	6.34367747	8.82031679	1.46451132	2.21861338	9.67197228	2.36952199	-0.47247838	9.24671576	-0.99892690	0.05073394	4.49890227	1.39387795	0.19148407	8.01944960	1.02109574	-0.58133792	5.33587111	0.90300048	8.50676129	3.73138710	0.44999403	7.88964077
1971	19.70000000	-7.88236878	0.96464496	6.37413631	8.96125587	1.49034751	2.19945708	9.73639293	2.52532718	-0.37018567	9.42362250	-1.04133808	0.13276973	5.64015205	-3.09401675	-3.93487556	7.71737215	0.82858358	-0.56905274	4.88888449	0.99992333	8.67794024	5.80398690	0.30628057	9.28062542
1972	19.71000000	-7.81194470	1.03767749	6.31396271	9.02000352	1.38467012	2.18397776	9.67154663	2.03601089	-0.42918723	9.45722515	-1.12298443	0.21145931	6.45349804	-8.68239701	-4.48654652	7.28965375	0.65068151	-0.36970627	4.89146073	0.93957232	8.69411566	7.55938716	-0.40964579	11.01249309
1973	19.72000000	-7.83880553	1.11954611	6.32610541	9.10418871	1.28208987	2.16570398	9.73838065	1.34941497	-0.62982946	9.40620273	-1.13926436	0.26223792	7.76898225	-12.12883292	-3.73217302	7.08721524	0.62922106	-0.04915137	5.08525782	1.05639663	8.56084644	8.84891143	-1.40930508	12.43253792
1974	19.73000000	-7.94945251	1.21949658	6.35565906	9.07782606	1.23764887	2.11476550	9.78726866	0.89973020	-0.68546077	9.30548557	-1.04555338	0.33189630	8.83720898	-12.52808144	-2.47039951	7.27680136	0.59170575	0.11675917	5.46853571	1.12568480	8.33055268	10.28392802	-1.64886388	13.32465762
